<!-- icon666.com - MILLIONS vector ICONS FREE --><svg id="_x33_0" enable-background="new 0 0 61.664 62" viewBox="0 0 61.664 62" xmlns="http://www.w3.org/2000/svg" xmlns:xlink="http://www.w3.org/1999/xlink"><linearGradient id="SVGID_1_" gradientUnits="userSpaceOnUse" x1="30.832" x2="30.832" y1="62" y2="0"><stop offset="0" stop-color="#9f2fff"></stop><stop offset="1" stop-color="#0bb1d3"></stop></linearGradient><path d="m23.832 24c1.654 0 3-1.346 3-3s-1.346-3-3-3-3 1.346-3 3 1.346 3 3 3zm0-4c.552 0 1 .449 1 1s-.448 1-1 1-1-.449-1-1 .448-1 1-1zm12-2c-1.654 0-3 1.346-3 3s1.346 3 3 3 3-1.346 3-3-1.346-3-3-3zm0 4c-.552 0-1-.449-1-1s.448-1 1-1 1 .449 1 1-.448 1-1 1zm-3.894 8.553 1.789.895-.105.211c-.723 1.444-2.175 2.341-3.79 2.341s-3.067-.897-3.789-2.342l-.105-.21 1.789-.895.105.211c.381.763 1.147 1.236 2 1.236s1.619-.474 2-1.236zm14.848-14.457c-.474-8.953-7.885-16.096-16.954-16.096s-16.48 7.143-16.954 16.096c-2.302.448-4.046 2.474-4.046 4.904 0 .629.13 1.225.342 1.78l-3.493 6.05 3.658 2.113c.195.112.289.343.229.559l-.037.133c-.057.215-.254.365-.476.365h-4.223v10h4.17c.253 0 .477.172.551.443.069.249-.037.513-.26.641l-3.611 2.086 5 8.66 3.671-2.119c.199-.116.453-.069.657.137.182.18.226.434.111.632l-2.119 3.671 8.604 4.968 2.326-3.47c.137-.206.405-.277.628-.166.168.084.272.252.272.439v4.078h10v-4.078c0-.188.104-.355.272-.439.225-.112.491-.038.628.166l2.326 3.47 8.604-4.968-2.119-3.671c-.114-.198-.07-.452.137-.657.179-.18.432-.226.632-.111l3.671 2.119 5-8.66-3.657-2.112c-.196-.113-.29-.344-.224-.584l.03-.108c.058-.217.255-.367.477-.367h4.223v-10h-4.223c-.223 0-.419-.15-.474-.35l-.04-.147c-.061-.217.033-.448.229-.562l3.657-2.112-3.493-6.05c.213-.555.342-1.151.342-1.779.002-2.43-1.742-4.456-4.044-4.904zm2.046 4.904c0 1.302-.839 2.402-2 2.816v-5.631c1.162.413 2 1.513 2 2.815zm-4 16c0 2.882-.831 5.567-2.245 7.855-.941-1.626-2.247-3.015-3.819-4.038 2.794-1.411 4.901-3.974 5.701-7.064.236 1.062.363 2.151.363 3.247zm-30-13v-6h2v6zm30-6v6h-2v-6zm-15 25.399-2.91-3.638.499-1.994c.525.099 1.063.159 1.608.192-.121.326-.197.673-.197 1.041 0 1.38.942 2.534 2.214 2.882zm2-3.399c-.552 0-1-.448-1-1s.448-1 1-1c1.244 0 2.331.803 2.706 1.973-.232.018-.469.027-.706.027zm-2-4c-2.657 0-5.097-.947-7-2.521v-4.479c0-.551.448-1 1-1h12c.552 0 1 .449 1 1v4.479c-1.903 1.574-4.343 2.521-7 2.521zm1-12v2h-2v-2zm5 2h-3v-2c0-1.103-.897-2-2-2v-8h7c1.654 0 3 1.346 3 3v1 7c0 2.346-.744 4.517-2 6.305v-2.305c0-1.654-1.346-3-3-3zm2-14h-3v-4.786c2.197 1.127 3.962 2.969 4.995 5.219-.614-.269-1.283-.433-1.995-.433zm-5 0h-6v-5.574c.955-.271 1.959-.426 3-.426s2.045.155 3 .426zm-8 0h-3c-.712 0-1.381.164-1.995.433 1.033-2.251 2.798-4.092 4.995-5.219zm-6 5c0-1.654 1.346-3 3-3h7v8c-1.103 0-2 .897-2 2v2h-3c-1.654 0-3 1.346-3 3v2.305c-1.256-1.787-2-3.959-2-6.305v-7zm6.66 20.239-.472 1.887c-3.361.678-6.246 2.787-7.943 5.727-1.414-2.288-2.244-4.972-2.244-7.853 0-2.987.899-5.871 2.538-8.323 1.179 3.99 4.224 7.175 8.121 8.562zm-.057 3.866 3.398 4.246v2.649h-4v-.586c0-1.179-.459-2.287-1.293-3.121l-1.414 1.414c.456.456.707 1.063.707 1.707v2.843c-1.701-.902-3.207-2.121-4.442-3.579 1.319-2.878 3.937-4.95 7.044-5.573zm-.603 8.895h4v1.949c-1.395-.093-2.735-.375-4-.824zm6 0h4v1.125c-1.265.449-2.605.732-4 .824zm5.293-5.707c-.834.834-1.293 1.942-1.293 3.121v.586h-4v-2.649l2.681-3.351h.319c.829 0 1.635-.1 2.412-.275 2.226.972 4.024 2.742 5.036 4.945-1.236 1.461-2.744 2.683-4.449 3.586v-2.843c0-.645.251-1.251.707-1.707zm6.707-13.293c0 4.03-2.663 7.45-6.321 8.593-.281-1.055-.898-1.949-1.716-2.582 4.418-1.833 7.605-6.034 7.986-11.011h.051zm-13-29c7.934 0 14.431 6.195 14.949 14h-2c-.513-6.701-6.119-12-12.949-12s-12.435 5.299-12.949 12h-2c.518-7.805 7.015-14 14.949-14zm-17 16.184v5.631c-1.161-.414-2-1.514-2-2.816s.839-2.401 2-2.815zm36.494 11.025c-.989.569-1.465 1.735-1.155 2.835l.031.117c.296 1.083 1.286 1.839 2.407 1.839h2.223v6h-2.223c-1.121 0-2.111.756-2.407 1.838l-.032.119c-.308 1.098.167 2.263 1.155 2.833l1.925 1.112-3 5.195-1.938-1.119c-.979-.564-2.234-.387-3.069.451-.819.816-.996 2.07-.432 3.05l1.119 1.938-5.252 3.032-1.283-1.915c-.696-1.04-2.066-1.401-3.185-.842-.85.425-1.378 1.279-1.378 2.229v2.079h-6v-2.078c0-.949-.528-1.804-1.378-2.229-1.116-.56-2.487-.198-3.185.842l-1.283 1.915-5.252-3.032 1.119-1.938c.564-.979.388-2.233-.451-3.069-.816-.818-2.069-.997-3.05-.432l-1.938 1.119-3-5.195 1.878-1.086c1.014-.583 1.502-1.779 1.183-2.93-.306-1.112-1.323-1.887-2.473-1.887h-2.17v-6h2.223c1.121 0 2.111-.756 2.411-1.854l.028-.104c.309-1.099-.167-2.264-1.155-2.833l-1.925-1.112 2.001-3.467c.896.844 2.093 1.37 3.417 1.37h3.051v.007c-2.608 3.07-4.051 6.951-4.051 10.993 0 9.374 7.626 17 17 17s17-7.626 17-17c0-2.791-.695-5.546-2-7.994v-3.006h1c1.324 0 2.521-.526 3.417-1.369l2.001 3.468zm-20.494-21.209h2v2h-2zm26 50h2v2h-2zm1-2c-.853 0-1.619.474-2 1.236l-.105.211-1.789-.895.105-.211c.722-1.444 2.174-2.341 3.789-2.341s3.067.897 3.789 2.342l.105.211-1.789.895-.105-.211c-.381-.763-1.147-1.237-2-1.237zm5.496-3.059.336.504-1.664 1.11-.336-.504c-.856-1.284-2.289-2.051-3.832-2.051s-2.976.767-3.832 2.051l-.336.504-1.664-1.11.336-.504c1.228-1.841 3.283-2.941 5.496-2.941s4.268 1.1 5.496 2.941zm-56.496-38.941h2v2h-2zm1-2c-.853 0-1.619.474-2 1.236l-.105.211-1.789-.895.105-.211c.722-1.444 2.174-2.341 3.789-2.341s3.067.897 3.789 2.342l.105.21-1.789.895-.105-.211c-.381-.762-1.147-1.236-2-1.236zm5.496-3.059.336.504-1.664 1.11-.336-.504c-.856-1.284-2.289-2.051-3.832-2.051s-2.976.767-3.832 2.051l-.336.504-1.664-1.11.336-.504c1.228-1.841 3.283-2.941 5.496-2.941s4.268 1.1 5.496 2.941zm43.504-7.828 6.805 10.887h-2.805v20h-2v-22h1.195l-3.195-5.113-3.195 5.113h1.195v8h-2v-6h-2.805z" fill="url(#SVGID_1_)"></path></svg>